<mxfile host="app.diagrams.net" modified="2023-11-15T05:32:56.798Z" agent="Mozilla/5.0 (Windows NT 10.0; Win64; x64) AppleWebKit/537.36 (KHTML, like Gecko) Chrome/116.0.0.0 Safari/537.36 Edg/116.0.1938.76" etag="8i0Z0hCYJMnHLQogMAWR" version="22.1.1" type="github">
  <diagram name="Page-1" id="ZmuFyM6fvtMOjyiI3Wcf">
    <mxGraphModel dx="863" dy="409" grid="1" gridSize="10" guides="1" tooltips="1" connect="1" arrows="1" fold="1" page="1" pageScale="1" pageWidth="850" pageHeight="1100" math="0" shadow="0">
      <root>
        <mxCell id="0" />
        <mxCell id="1" parent="0" />
        <mxCell id="HS4mzQeZrX7XptLeHZY5-13" style="edgeStyle=orthogonalEdgeStyle;rounded=0;orthogonalLoop=1;jettySize=auto;html=1;exitX=0.5;exitY=1;exitDx=0;exitDy=0;" parent="1" source="HS4mzQeZrX7XptLeHZY5-1" edge="1">
          <mxGeometry relative="1" as="geometry">
            <mxPoint x="425" y="116" as="targetPoint" />
          </mxGeometry>
        </mxCell>
        <mxCell id="HS4mzQeZrX7XptLeHZY5-16" value="" style="edgeStyle=orthogonalEdgeStyle;rounded=0;orthogonalLoop=1;jettySize=auto;html=1;entryX=0.529;entryY=0;entryDx=0;entryDy=0;entryPerimeter=0;" parent="1" source="HS4mzQeZrX7XptLeHZY5-1" edge="1">
          <mxGeometry relative="1" as="geometry">
            <mxPoint x="428.6299999999999" y="186" as="targetPoint" />
          </mxGeometry>
        </mxCell>
        <mxCell id="HS4mzQeZrX7XptLeHZY5-1" value="Doctor Appointment APP (&lt;b&gt;&lt;u&gt;AngularJS)&lt;/u&gt;&lt;/b&gt;" style="rounded=1;whiteSpace=wrap;html=1;" parent="1" vertex="1">
          <mxGeometry x="335" y="56" width="180" height="60" as="geometry" />
        </mxCell>
        <mxCell id="HS4mzQeZrX7XptLeHZY5-19" style="edgeStyle=orthogonalEdgeStyle;rounded=0;orthogonalLoop=1;jettySize=auto;html=1;entryX=0.5;entryY=0;entryDx=0;entryDy=0;" parent="1" edge="1">
          <mxGeometry relative="1" as="geometry">
            <mxPoint x="430" y="180" as="sourcePoint" />
            <mxPoint x="130" y="376" as="targetPoint" />
          </mxGeometry>
        </mxCell>
        <mxCell id="HS4mzQeZrX7XptLeHZY5-20" value="" style="edgeStyle=orthogonalEdgeStyle;rounded=0;orthogonalLoop=1;jettySize=auto;html=1;" parent="1" edge="1">
          <mxGeometry relative="1" as="geometry">
            <mxPoint x="430" y="180" as="sourcePoint" />
            <mxPoint x="440" y="376" as="targetPoint" />
          </mxGeometry>
        </mxCell>
        <mxCell id="HS4mzQeZrX7XptLeHZY5-41" style="edgeStyle=orthogonalEdgeStyle;rounded=0;orthogonalLoop=1;jettySize=auto;html=1;entryX=0.5;entryY=0;entryDx=0;entryDy=0;" parent="1" edge="1">
          <mxGeometry relative="1" as="geometry">
            <mxPoint x="420" y="181" as="sourcePoint" />
            <mxPoint x="730" y="366" as="targetPoint" />
          </mxGeometry>
        </mxCell>
        <mxCell id="HS4mzQeZrX7XptLeHZY5-23" value="" style="edgeStyle=orthogonalEdgeStyle;rounded=0;orthogonalLoop=1;jettySize=auto;html=1;" parent="1" target="HS4mzQeZrX7XptLeHZY5-9" edge="1">
          <mxGeometry relative="1" as="geometry">
            <mxPoint x="130" y="436" as="sourcePoint" />
          </mxGeometry>
        </mxCell>
        <mxCell id="HS4mzQeZrX7XptLeHZY5-28" value="" style="edgeStyle=orthogonalEdgeStyle;rounded=0;orthogonalLoop=1;jettySize=auto;html=1;exitX=0.5;exitY=1;exitDx=0;exitDy=0;" parent="1" target="HS4mzQeZrX7XptLeHZY5-10" edge="1">
          <mxGeometry relative="1" as="geometry">
            <mxPoint x="440" y="436" as="sourcePoint" />
          </mxGeometry>
        </mxCell>
        <mxCell id="HS4mzQeZrX7XptLeHZY5-29" value="" style="edgeStyle=orthogonalEdgeStyle;rounded=0;orthogonalLoop=1;jettySize=auto;html=1;exitX=0.615;exitY=0.975;exitDx=0;exitDy=0;exitPerimeter=0;" parent="1" target="HS4mzQeZrX7XptLeHZY5-11" edge="1">
          <mxGeometry relative="1" as="geometry">
            <mxPoint x="743.8" y="424.5" as="sourcePoint" />
          </mxGeometry>
        </mxCell>
        <mxCell id="HS4mzQeZrX7XptLeHZY5-9" value="Doctors DB" style="shape=cylinder3;whiteSpace=wrap;html=1;boundedLbl=1;backgroundOutline=1;size=15;" parent="1" vertex="1">
          <mxGeometry x="90" y="521" width="60" height="80" as="geometry" />
        </mxCell>
        <mxCell id="HS4mzQeZrX7XptLeHZY5-10" value="appointment details&amp;nbsp;" style="shape=cylinder3;whiteSpace=wrap;html=1;boundedLbl=1;backgroundOutline=1;size=15;" parent="1" vertex="1">
          <mxGeometry x="410" y="525" width="60" height="80" as="geometry" />
        </mxCell>
        <mxCell id="HS4mzQeZrX7XptLeHZY5-11" value="notifica tions&amp;nbsp;" style="shape=cylinder3;whiteSpace=wrap;html=1;boundedLbl=1;backgroundOutline=1;size=15;" parent="1" vertex="1">
          <mxGeometry x="710" y="521" width="60" height="80" as="geometry" />
        </mxCell>
        <mxCell id="HS4mzQeZrX7XptLeHZY5-25" value="&lt;b&gt;&lt;u&gt;MySQL&lt;/u&gt;&lt;/b&gt;: registerusersdb" style="rounded=0;whiteSpace=wrap;html=1;" parent="1" vertex="1">
          <mxGeometry x="50" y="611" width="120" height="30" as="geometry" />
        </mxCell>
        <mxCell id="HS4mzQeZrX7XptLeHZY5-26" value="&lt;b&gt;&lt;u&gt;MySQL&lt;/u&gt;&lt;/b&gt;: appointmentdb" style="rounded=0;whiteSpace=wrap;html=1;" parent="1" vertex="1">
          <mxGeometry x="380" y="615" width="120" height="30" as="geometry" />
        </mxCell>
        <mxCell id="HS4mzQeZrX7XptLeHZY5-27" value="&lt;b&gt;&lt;u&gt;MySQL&lt;/u&gt;&lt;/b&gt;: notificationdb&amp;nbsp;" style="rounded=0;whiteSpace=wrap;html=1;" parent="1" vertex="1">
          <mxGeometry x="690" y="613" width="120" height="30" as="geometry" />
        </mxCell>
        <mxCell id="HS4mzQeZrX7XptLeHZY5-33" value="&lt;b&gt;&lt;u&gt;REST API&lt;/u&gt;&lt;/b&gt;" style="rounded=0;whiteSpace=wrap;html=1;" parent="1" vertex="1">
          <mxGeometry x="435" y="136" width="80" height="30" as="geometry" />
        </mxCell>
        <mxCell id="HS4mzQeZrX7XptLeHZY5-35" value="Displaydoctors," style="text;html=1;strokeColor=none;fillColor=none;align=center;verticalAlign=middle;whiteSpace=wrap;rounded=0;" parent="1" vertex="1">
          <mxGeometry x="529" y="136" width="60" height="30" as="geometry" />
        </mxCell>
        <mxCell id="HS4mzQeZrX7XptLeHZY5-36" value="schedule," style="text;html=1;strokeColor=none;fillColor=none;align=center;verticalAlign=middle;whiteSpace=wrap;rounded=0;" parent="1" vertex="1">
          <mxGeometry x="600" y="136" width="60" height="30" as="geometry" />
        </mxCell>
        <mxCell id="HS4mzQeZrX7XptLeHZY5-37" value="Retrieve notification" style="text;html=1;strokeColor=none;fillColor=none;align=center;verticalAlign=middle;whiteSpace=wrap;rounded=0;" parent="1" vertex="1">
          <mxGeometry x="660" y="136" width="60" height="30" as="geometry" />
        </mxCell>
        <mxCell id="HS4mzQeZrX7XptLeHZY5-38" value="Displaydoctors," style="text;html=1;strokeColor=none;fillColor=none;align=center;verticalAlign=middle;whiteSpace=wrap;rounded=0;" parent="1" vertex="1">
          <mxGeometry x="50" y="276" width="60" height="30" as="geometry" />
        </mxCell>
        <mxCell id="HS4mzQeZrX7XptLeHZY5-39" value="schedule," style="text;html=1;strokeColor=none;fillColor=none;align=center;verticalAlign=middle;whiteSpace=wrap;rounded=0;" parent="1" vertex="1">
          <mxGeometry x="365" y="282" width="60" height="30" as="geometry" />
        </mxCell>
        <mxCell id="HS4mzQeZrX7XptLeHZY5-40" value="Retrieve notification" style="text;html=1;strokeColor=none;fillColor=none;align=center;verticalAlign=middle;whiteSpace=wrap;rounded=0;" parent="1" vertex="1">
          <mxGeometry x="650" y="287" width="60" height="30" as="geometry" />
        </mxCell>
        <mxCell id="HS4mzQeZrX7XptLeHZY5-42" value="&lt;b&gt;&lt;u&gt;REST API&lt;/u&gt;&lt;/b&gt;" style="rounded=0;whiteSpace=wrap;html=1;" parent="1" vertex="1">
          <mxGeometry x="150" y="282" width="80" height="30" as="geometry" />
        </mxCell>
        <mxCell id="HS4mzQeZrX7XptLeHZY5-43" value="&lt;b&gt;&lt;u&gt;REST API&lt;/u&gt;&lt;/b&gt;" style="rounded=0;whiteSpace=wrap;html=1;" parent="1" vertex="1">
          <mxGeometry x="449" y="282" width="80" height="30" as="geometry" />
        </mxCell>
        <mxCell id="HS4mzQeZrX7XptLeHZY5-44" value="&lt;b&gt;&lt;u&gt;REST API&lt;/u&gt;&lt;/b&gt;" style="rounded=0;whiteSpace=wrap;html=1;" parent="1" vertex="1">
          <mxGeometry x="740" y="287" width="80" height="30" as="geometry" />
        </mxCell>
        <mxCell id="HS4mzQeZrX7XptLeHZY5-47" style="edgeStyle=orthogonalEdgeStyle;rounded=0;orthogonalLoop=1;jettySize=auto;html=1;exitX=0.91;exitY=0;exitDx=0;exitDy=0;exitPerimeter=0;entryX=0;entryY=0.5;entryDx=0;entryDy=0;" parent="1" source="HS4mzQeZrX7XptLeHZY5-45" target="M-F2haKUaTVbY2xU0kyw-3" edge="1">
          <mxGeometry relative="1" as="geometry">
            <mxPoint x="670" y="411" as="targetPoint" />
            <Array as="points">
              <mxPoint x="638" y="444" />
              <mxPoint x="671" y="444" />
            </Array>
          </mxGeometry>
        </mxCell>
        <mxCell id="HS4mzQeZrX7XptLeHZY5-45" value="Notification messages (&lt;b&gt;&lt;u&gt;RabbitMQ&lt;/u&gt;&lt;/b&gt;)" style="strokeWidth=2;html=1;shape=mxgraph.flowchart.direct_data;whiteSpace=wrap;" parent="1" vertex="1">
          <mxGeometry x="519" y="476" width="131" height="60" as="geometry" />
        </mxCell>
        <mxCell id="HS4mzQeZrX7XptLeHZY5-46" style="edgeStyle=orthogonalEdgeStyle;rounded=0;orthogonalLoop=1;jettySize=auto;html=1;entryX=0.08;entryY=0;entryDx=0;entryDy=0;entryPerimeter=0;exitX=1;exitY=0.5;exitDx=0;exitDy=0;" parent="1" source="M-F2haKUaTVbY2xU0kyw-2" target="HS4mzQeZrX7XptLeHZY5-45" edge="1">
          <mxGeometry relative="1" as="geometry">
            <mxPoint x="500" y="406" as="sourcePoint" />
          </mxGeometry>
        </mxCell>
        <mxCell id="M-F2haKUaTVbY2xU0kyw-1" value="Display Doctors (&lt;b style=&quot;border-color: var(--border-color);&quot;&gt;&lt;u style=&quot;border-color: var(--border-color);&quot;&gt;Django&amp;nbsp;&lt;/u&gt;&lt;/b&gt;App)" style="shape=hexagon;perimeter=hexagonPerimeter2;whiteSpace=wrap;html=1;fixedSize=1;" vertex="1" parent="1">
          <mxGeometry x="70" y="376" width="120" height="80" as="geometry" />
        </mxCell>
        <mxCell id="M-F2haKUaTVbY2xU0kyw-2" value="Appointment Scheduling (&lt;b style=&quot;border-color: var(--border-color);&quot;&gt;&lt;u style=&quot;border-color: var(--border-color);&quot;&gt;Django&amp;nbsp;&lt;/u&gt;&lt;/b&gt;App)" style="shape=hexagon;perimeter=hexagonPerimeter2;whiteSpace=wrap;html=1;fixedSize=1;" vertex="1" parent="1">
          <mxGeometry x="380" y="376" width="120" height="80" as="geometry" />
        </mxCell>
        <mxCell id="M-F2haKUaTVbY2xU0kyw-3" value="Notification (&lt;b style=&quot;border-color: var(--border-color);&quot;&gt;&lt;u style=&quot;border-color: var(--border-color);&quot;&gt;Django&lt;/u&gt;&lt;/b&gt;&amp;nbsp;App)" style="shape=hexagon;perimeter=hexagonPerimeter2;whiteSpace=wrap;html=1;fixedSize=1;" vertex="1" parent="1">
          <mxGeometry x="670" y="360" width="120" height="80" as="geometry" />
        </mxCell>
      </root>
    </mxGraphModel>
  </diagram>
</mxfile>
